<mxfile host="app.diagrams.net" modified="2024-04-18T13:58:46.280Z" agent="Mozilla/5.0 (Windows NT 10.0; Win64; x64) AppleWebKit/537.36 (KHTML, like Gecko) Chrome/124.0.0.0 Safari/537.36" version="24.2.5" etag="IgyxVXFNQXS8GAXqzebN" type="github">
  <diagram name="Page-1" id="Ksy5MSuIpyFtsl3G_FBz">
    <mxGraphModel>
      <root>
        <mxCell id="0" />
        <mxCell id="1" parent="0" />
      </root>
    </mxGraphModel>
  </diagram>
</mxfile>
